<?xml version="1.0" encoding="UTF-8" standalone="no"?>
<svg
   id="Layer_1"
   data-name="Layer 1"
   viewBox="0 0 24 24"
   version="1.1"
   sodipodi:docname="cat.svg"
   inkscape:version="1.2.2 (732a01da63, 2022-12-09)"
   inkscape:export-filename="app_logo.png"
   inkscape:export-xdpi="96"
   inkscape:export-ydpi="96"
   xmlns:inkscape="http://www.inkscape.org/namespaces/inkscape"
   xmlns:sodipodi="http://sodipodi.sourceforge.net/DTD/sodipodi-0.dtd"
   xmlns:xlink="http://www.w3.org/1999/xlink"
   xmlns="http://www.w3.org/2000/svg"
   xmlns:svg="http://www.w3.org/2000/svg">
  <defs
     id="defs14">
    <filter
       id="mask-powermask-path-effect1283_inverse"
       inkscape:label="filtermask-powermask-path-effect1283"
       style="color-interpolation-filters:sRGB"
       height="100"
       width="100"
       x="-50"
       y="-50">
      <feColorMatrix
         id="mask-powermask-path-effect1283_primitive1"
         values="1"
         type="saturate"
         result="fbSourceGraphic" />
      <feColorMatrix
         id="mask-powermask-path-effect1283_primitive2"
         values="-1 0 0 0 1 0 -1 0 0 1 0 0 -1 0 1 0 0 0 1 0 "
         in="fbSourceGraphic" />
    </filter>
    <clipPath
       clipPathUnits="userSpaceOnUse"
       id="clipPath1369">
      <use
         x="0"
         y="0"
         xlink:href="#g1365"
         id="use1371" />
    </clipPath>
  </defs>
  <sodipodi:namedview
     id="namedview12"
     pagecolor="#ffffff"
     bordercolor="#000000"
     borderopacity="0.25"
     inkscape:showpageshadow="2"
     inkscape:pageopacity="0.0"
     inkscape:pagecheckerboard="0"
     inkscape:deskcolor="#d1d1d1"
     showgrid="false"
     inkscape:zoom="25.190679"
     inkscape:cx="-2.4413792"
     inkscape:cy="13.338267"
     inkscape:window-width="1920"
     inkscape:window-height="1009"
     inkscape:window-x="-8"
     inkscape:window-y="-8"
     inkscape:window-maximized="1"
     inkscape:current-layer="Layer_1" />
  <rect
     style="fill:#731a73;stroke-width:1.00104;fill-opacity:1"
     id="rect667"
     width="23.987047"
     height="23.977123"
     x="0.0099243056"
     y="-8.4648505e-10"
     ry="0" />
  <path
     style="fill:#b258a7;stroke-width:1.20271;fill-opacity:1"
     id="path612"
     sodipodi:type="arc"
     sodipodi:cx="11.988562"
     sodipodi:cy="12.048106"
     sodipodi:rx="11.432799"
     sodipodi:ry="11.29386"
     sodipodi:start="0"
     sodipodi:end="6.2212893"
     sodipodi:open="true"
     sodipodi:arc-type="arc"
     d="M 23.421361,12.048106 A 11.432799,11.29386 0 0 1 12.165466,23.340615 11.432799,11.29386 0 0 1 0.5612369,12.397573 11.432799,11.29386 0 0 1 11.458019,0.76641272 11.432799,11.29386 0 0 1 23.399468,11.349508" />
  <g
     id="g1367"
     clip-path="url(#clipPath1369)">
    <g
       inkscape:label="Clip"
       id="g1365"
       transform="matrix(0.87130646,0,0,0.86737496,2.5471146,2.6303252)">
      <path
         d="m 18.883589,7.9069748 -0.04224,-3.4147006 c -0.0029,-0.2353038 -0.146358,-0.4483619 -0.370691,-0.5511231 -0.224989,-0.1027529 -0.49181,-0.076447 -0.688086,0.06758 l -1.100153,0.799236 C 16.234067,4.6278999 15.740686,4.5309811 15.222923,4.5374446 14.705159,4.543908 14.214335,4.6537339 13.770571,4.8443169 L 12.650987,4.0727906 C 12.449893,3.9337244 12.182503,3.9140871 11.961441,4.0224081 11.739712,4.1301167 11.601587,4.3473107 11.604498,4.5826147 l 0.04224,3.4147004 c 0.008,0.6500347 0.208982,1.255436 0.550915,1.7690411 C 6.6279641,11.595037 6.4865111,16.755659 6.4989585,17.549079 5.4890916,17.295919 4.5158179,16.649861 4.5020619,15.537911 4.4900418,14.566273 4.9535087,13.840806 5.4447582,13.07401 5.9275933,12.318494 6.4265687,11.537941 6.4143027,10.546435 6.394602,8.9539437 5.4784034,7.9749643 3.8344124,7.7899522 3.477311,7.7521898 3.1460189,7.9922823 3.1022015,8.3331109 3.0583765,8.6733176 3.3155293,8.9824449 3.6766166,9.0232676 4.661033,9.1339268 5.0858803,9.5949568 5.0978621,10.56349 c 0.00789,0.637618 -0.3574684,1.209107 -0.780279,1.870108 -0.5383543,0.841899 -1.14836,1.795843 -1.131962,3.121368 0.024063,1.945137 1.8564237,3.155471 3.7846253,3.336935 0.064719,0.01906 0.4826214,0.02503 0.572095,0.02391 L 18.359454,18.780777 c 0.363158,-0.0045 0.654463,-0.285734 0.650215,-0.629068 -0.0042,-0.343332 -0.302418,-0.617174 -0.665577,-0.612641 l -0.657894,0.0082 -0.08648,-6.990822 c 0.795532,-0.6370917 1.29632,-1.5902927 1.283224,-2.6488495 z m -2.512532,9.6560972 -1.315789,0.01643 c -0.02542,-2.054409 -1.81648,-3.703028 -3.993455,-3.675852 -0.363158,0.0045 -0.654462,0.285735 -0.650215,0.629068 0.0042,0.343332 0.302418,0.617175 0.665576,0.612641 1.451316,-0.01812 2.645359,1.080963 2.662302,2.450568 l -5.9217137,0.07392 C 7.8038362,17.44834 7.5466556,12.24364 13.214138,10.767058 c 0.59501,0.386876 1.317612,0.609471 2.093271,0.599788 0.342105,-0.0043 0.672465,-0.05373 0.985244,-0.141457 z m -1.079009,-7.437936 c -1.269738,0.01585 -2.314692,-0.945997 -2.329515,-2.1442463 -0.01482,-1.1982492 1.006013,-2.1858853 2.275751,-2.201736 1.269737,-0.015851 2.314692,0.9459973 2.329515,2.1442466 0.01482,1.1982493 -1.006014,2.1858847 -2.275751,2.2017357 z"
         id="path9"
         style="display:inline;fill:#6c1061;fill-opacity:1;stroke-width:0.639156"
         inkscape:label="cat"
         mask="none" />
    </g>
    <rect
       style="fill:#6a196a;fill-opacity:1;stroke-width:4.19278"
       id="rect1347"
       width="32.869301"
       height="27.192598"
       x="-4.3269968"
       y="-1.111522" />
  </g>
</svg>
