<?xml version="1.0" encoding="UTF-8" standalone="no"?>
<!-- Created with Inkscape (http://www.inkscape.org/) -->

<svg
   width="184.45261mm"
   height="184.18761mm"
   viewBox="0 0 184.45261 184.18761"
   version="1.1"
   id="svg5"
   xmlns="http://www.w3.org/2000/svg"
   xmlns:svg="http://www.w3.org/2000/svg">
  <defs
     id="defs2">
    <clipPath
       clipPathUnits="userSpaceOnUse"
       id="clipPath1384">
      <path
         style="display:inline;fill:#6a196a;stroke-width:0.264583"
         id="path1386"
         d="M 185.49473,92.400009 A 92.226311,92.052635 0 0 1 94.695471,184.44162 92.226311,92.052635 0 0 1 1.0862693,95.2484 92.226311,92.052635 0 0 1 88.988625,0.44654298 92.226311,92.052635 0 0 1 185.31812,86.705956" />
    </clipPath>
  </defs>
  <g
     id="layer1"
     transform="translate(-0.86615749,-0.26503756)">
    <path
       style="display:inline;fill:#6a196a;stroke-width:0.264583"
       id="path288-3"
       d="M 185.31878,92.317673 A 92.226311,92.052635 0 0 1 94.519521,184.35929 92.226311,92.052635 0 0 1 0.91032022,95.166063 92.226311,92.052635 0 0 1 88.812676,0.36420656 92.226311,92.052635 0 0 1 185.14217,86.62362" />
    <path
       style="fill:#9a249a;fill-opacity:1;stroke-width:0.264583"
       id="path844"
       d="M 159.78949,151.27895 A 63.915787,48.805264 0 0 1 96.862697,200.07837 63.915787,48.805264 0 0 1 31.988522,152.78913 63.915787,48.805264 0 0 1 92.90767,102.52626 63.915787,48.805264 0 0 1 159.66709,148.26002"
       clip-path="url(#clipPath1384)" />
    <path
       style="fill:#9a249a;fill-opacity:1;stroke-width:0.280716"
       id="path1216"
       d="M 145.33665,84.941803 A 50.292866,52.745514 0 0 1 95.821986,137.681 50.292866,52.745514 0 0 1 44.775002,86.573911 50.292866,52.745514 0 0 1 92.709928,32.253112 50.292866,52.745514 0 0 1 145.24034,81.67915" />
    <path
       style="fill:#9a249a;fill-opacity:1;stroke-width:0.264583"
       d="m 51.456171,54.145909 c -1.01e-4,-8.568447 0.405162,-25.068445 0.839358,-33.69486 0.434196,-8.626416 0.897345,-9.379033 4.834383,-3.99459 3.937038,5.384442 11.347416,16.905264 15.168393,23.476327 3.820976,6.571064 4.052551,8.192084 0.115647,11.376169 -3.936903,3.184086 -12.042004,7.93136 -16.297214,9.986794 -4.255211,2.055435 -4.660465,1.418608 -4.660567,-7.14984 z"
       id="path1278" />
    <path
       style="fill:#9a249a;fill-opacity:1;stroke-width:0.264583"
       d="m 138.76928,54.76575 c 1e-4,-8.568447 -0.40516,-25.068445 -0.83936,-33.69486 -0.43419,-8.626416 -0.89734,-9.379034 -4.83438,-3.99459 -3.93703,5.384443 -11.34741,16.905265 -15.16839,23.476328 -3.82097,6.571063 -4.05255,8.192083 -0.11565,11.376167 3.93691,3.184084 12.042,7.931358 16.29722,9.986793 4.25521,2.055435 4.66046,1.41861 4.66056,-7.149838 z"
       id="path1278-2" />
  </g>
</svg>
